<svg xmlns="http://www.w3.org/2000/svg" xmlns:xlink="http://www.w3.org/1999/xlink" width="50" zoomAndPan="magnify" viewBox="0 0 37.5 37.499999" height="50" preserveAspectRatio="xMidYMid meet" version="1.0"><defs><g/><clipPath id="f099663712"><path d="M 0 0 L 18.75 0 L 18.75 18.75 L 0 18.75 Z M 0 0 " clip-rule="nonzero"/></clipPath><clipPath id="a3b7ac3299"><path d="M 18.75 18.75 L 37.007812 18.75 L 37.007812 37.007812 L 18.75 37.007812 Z M 18.75 18.75 " clip-rule="nonzero"/></clipPath></defs><g clip-path="url(#f099663712)"><path fill="#c9e265" d="M 0 0 L 18.75 0 L 18.75 18.75 L 0 18.75 Z M 0 0 " fill-opacity="1" fill-rule="nonzero"/></g><g clip-path="url(#a3b7ac3299)"><path fill="#c9e265" d="M 18.75 18.75 L 37.5 18.75 L 37.5 37.5 L 18.75 37.5 Z M 18.75 18.75 " fill-opacity="1" fill-rule="nonzero"/></g><g fill="#000000" fill-opacity="1"><g transform="translate(1.237216, 14.2016)"><g><path d="M 1.15625 -9.203125 L 4.015625 -9.203125 C 5.328125 -9.203125 6.273438 -9.015625 6.859375 -8.640625 C 7.453125 -8.273438 7.75 -7.6875 7.75 -6.875 C 7.75 -6.320312 7.617188 -5.867188 7.359375 -5.515625 C 7.097656 -5.160156 6.753906 -4.953125 6.328125 -4.890625 L 6.328125 -4.828125 C 6.910156 -4.691406 7.332031 -4.445312 7.59375 -4.09375 C 7.851562 -3.738281 7.984375 -3.265625 7.984375 -2.671875 C 7.984375 -1.828125 7.675781 -1.171875 7.0625 -0.703125 C 6.457031 -0.234375 5.632812 0 4.59375 0 L 1.15625 0 Z M 3.109375 -5.5625 L 4.25 -5.5625 C 4.769531 -5.5625 5.148438 -5.640625 5.390625 -5.796875 C 5.628906 -5.960938 5.75 -6.234375 5.75 -6.609375 C 5.75 -6.960938 5.617188 -7.21875 5.359375 -7.375 C 5.097656 -7.53125 4.691406 -7.609375 4.140625 -7.609375 L 3.109375 -7.609375 Z M 3.109375 -4.015625 L 3.109375 -1.609375 L 4.375 -1.609375 C 4.914062 -1.609375 5.3125 -1.710938 5.5625 -1.921875 C 5.820312 -2.128906 5.953125 -2.441406 5.953125 -2.859375 C 5.953125 -3.628906 5.40625 -4.015625 4.3125 -4.015625 Z M 3.109375 -4.015625 "/></g></g></g><g fill="#000000" fill-opacity="1"><g transform="translate(9.898363, 14.2016)"><g><path d="M 3.921875 -5.796875 C 3.515625 -5.796875 3.195312 -5.664062 2.96875 -5.40625 C 2.738281 -5.15625 2.601562 -4.789062 2.5625 -4.3125 L 5.265625 -4.3125 C 5.253906 -4.789062 5.128906 -5.15625 4.890625 -5.40625 C 4.648438 -5.664062 4.328125 -5.796875 3.921875 -5.796875 Z M 4.1875 0.125 C 3.0625 0.125 2.175781 -0.1875 1.53125 -0.8125 C 0.894531 -1.4375 0.578125 -2.320312 0.578125 -3.46875 C 0.578125 -4.644531 0.867188 -5.554688 1.453125 -6.203125 C 2.046875 -6.847656 2.863281 -7.171875 3.90625 -7.171875 C 4.90625 -7.171875 5.679688 -6.882812 6.234375 -6.3125 C 6.785156 -5.75 7.0625 -4.96875 7.0625 -3.96875 L 7.0625 -3.046875 L 2.53125 -3.046875 C 2.550781 -2.492188 2.710938 -2.0625 3.015625 -1.75 C 3.316406 -1.445312 3.738281 -1.296875 4.28125 -1.296875 C 4.707031 -1.296875 5.109375 -1.335938 5.484375 -1.421875 C 5.859375 -1.515625 6.253906 -1.660156 6.671875 -1.859375 L 6.671875 -0.375 C 6.328125 -0.207031 5.960938 -0.0820312 5.578125 0 C 5.203125 0.0820312 4.738281 0.125 4.1875 0.125 Z M 4.1875 0.125 "/></g></g></g><g fill="#000000" fill-opacity="1"><g transform="translate(20.766416, 33.249974)"><g><path d="M 1.1875 -9.390625 L 4.109375 -9.390625 C 5.441406 -9.390625 6.40625 -9.195312 7 -8.8125 C 7.601562 -8.4375 7.90625 -7.835938 7.90625 -7.015625 C 7.90625 -6.453125 7.773438 -5.988281 7.515625 -5.625 C 7.253906 -5.269531 6.90625 -5.054688 6.46875 -4.984375 L 6.46875 -4.921875 C 7.0625 -4.785156 7.488281 -4.535156 7.75 -4.171875 C 8.007812 -3.804688 8.140625 -3.320312 8.140625 -2.71875 C 8.140625 -1.863281 7.828125 -1.195312 7.203125 -0.71875 C 6.585938 -0.238281 5.753906 0 4.703125 0 L 1.1875 0 Z M 3.171875 -5.671875 L 4.328125 -5.671875 C 4.867188 -5.671875 5.257812 -5.753906 5.5 -5.921875 C 5.738281 -6.085938 5.859375 -6.363281 5.859375 -6.75 C 5.859375 -7.113281 5.726562 -7.375 5.46875 -7.53125 C 5.207031 -7.6875 4.789062 -7.765625 4.21875 -7.765625 L 3.171875 -7.765625 Z M 3.171875 -4.09375 L 3.171875 -1.640625 L 4.46875 -1.640625 C 5.019531 -1.640625 5.425781 -1.742188 5.6875 -1.953125 C 5.945312 -2.171875 6.078125 -2.492188 6.078125 -2.921875 C 6.078125 -3.703125 5.519531 -4.09375 4.40625 -4.09375 Z M 3.171875 -4.09375 "/></g></g><g transform="translate(29.602167, 33.249974)"><g><path d="M 5.03125 -7.3125 C 5.300781 -7.3125 5.523438 -7.296875 5.703125 -7.265625 L 5.546875 -5.421875 C 5.390625 -5.460938 5.195312 -5.484375 4.96875 -5.484375 C 4.34375 -5.484375 3.851562 -5.320312 3.5 -5 C 3.15625 -4.675781 2.984375 -4.226562 2.984375 -3.65625 L 2.984375 0 L 1.03125 0 L 1.03125 -7.1875 L 2.515625 -7.1875 L 2.796875 -5.96875 L 2.890625 -5.96875 C 3.117188 -6.375 3.421875 -6.695312 3.796875 -6.9375 C 4.179688 -7.1875 4.59375 -7.3125 5.03125 -7.3125 Z M 5.03125 -7.3125 "/></g></g></g><g fill="#000000" fill-opacity="1"><g transform="translate(35.573248, 33.249974)"><g/></g></g><g fill="#000000" fill-opacity="1"><g transform="translate(15.528757, 21.664973)"><g><path d="M 4.484375 0 L 4.109375 -0.40625 C 3.867188 -0.25 3.671875 -0.144531 3.515625 -0.09375 C 3.367188 -0.0390625 3.203125 0 3.015625 0.03125 C 2.828125 0.0625 2.613281 0.078125 2.375 0.078125 C 1.957031 0.078125 1.585938 0.0078125 1.265625 -0.125 C 0.953125 -0.269531 0.707031 -0.46875 0.53125 -0.71875 C 0.363281 -0.976562 0.28125 -1.269531 0.28125 -1.59375 C 0.28125 -2.28125 0.640625 -2.804688 1.359375 -3.171875 C 1.191406 -3.359375 1.0625 -3.554688 0.96875 -3.765625 C 0.882812 -3.972656 0.84375 -4.203125 0.84375 -4.453125 C 0.84375 -4.878906 1.003906 -5.210938 1.328125 -5.453125 C 1.648438 -5.703125 2.09375 -5.828125 2.65625 -5.828125 C 3.207031 -5.828125 3.640625 -5.703125 3.953125 -5.453125 C 4.265625 -5.210938 4.421875 -4.878906 4.421875 -4.453125 C 4.421875 -4.160156 4.335938 -3.890625 4.171875 -3.640625 C 4.003906 -3.398438 3.738281 -3.171875 3.375 -2.953125 L 4.15625 -2.203125 C 4.351562 -2.503906 4.492188 -2.847656 4.578125 -3.234375 L 6.171875 -3.234375 C 6.085938 -2.867188 5.960938 -2.503906 5.796875 -2.140625 C 5.628906 -1.773438 5.4375 -1.460938 5.21875 -1.203125 L 6.484375 0 Z M 1.875 -1.703125 C 1.875 -1.535156 1.929688 -1.398438 2.046875 -1.296875 C 2.160156 -1.191406 2.316406 -1.140625 2.515625 -1.140625 C 2.660156 -1.140625 2.789062 -1.160156 2.90625 -1.203125 C 3.019531 -1.242188 3.109375 -1.289062 3.171875 -1.34375 L 2.1875 -2.328125 C 1.976562 -2.171875 1.875 -1.960938 1.875 -1.703125 Z M 3.03125 -4.453125 C 3.03125 -4.585938 2.992188 -4.679688 2.921875 -4.734375 C 2.847656 -4.796875 2.753906 -4.828125 2.640625 -4.828125 C 2.523438 -4.828125 2.425781 -4.789062 2.34375 -4.71875 C 2.257812 -4.65625 2.21875 -4.550781 2.21875 -4.40625 C 2.21875 -4.207031 2.335938 -4.003906 2.578125 -3.796875 C 2.722656 -3.878906 2.832031 -3.976562 2.90625 -4.09375 C 2.988281 -4.21875 3.03125 -4.335938 3.03125 -4.453125 Z M 3.03125 -4.453125 "/></g></g></g><g fill="#000000" fill-opacity="1"><g transform="translate(32.68173, 22.77393)"><g><path d="M 1.3125 -1.390625 C 1.3125 -1.285156 1.273438 -1.191406 1.203125 -1.109375 C 1.140625 -1.035156 1.046875 -0.976562 0.921875 -0.9375 C 1.210938 -0.894531 1.359375 -0.753906 1.359375 -0.515625 C 1.359375 -0.347656 1.289062 -0.210938 1.15625 -0.109375 C 1.03125 -0.015625 0.851562 0.03125 0.625 0.03125 C 0.519531 0.03125 0.425781 0.0195312 0.34375 0 C 0.269531 -0.0078125 0.179688 -0.0351562 0.078125 -0.078125 L 0.078125 -0.46875 C 0.160156 -0.425781 0.242188 -0.394531 0.328125 -0.375 C 0.410156 -0.363281 0.484375 -0.359375 0.546875 -0.359375 C 0.648438 -0.359375 0.726562 -0.367188 0.78125 -0.390625 C 0.832031 -0.421875 0.859375 -0.472656 0.859375 -0.546875 C 0.859375 -0.585938 0.84375 -0.617188 0.8125 -0.640625 C 0.789062 -0.671875 0.75 -0.691406 0.6875 -0.703125 C 0.632812 -0.722656 0.5625 -0.734375 0.46875 -0.734375 L 0.359375 -0.734375 L 0.359375 -1.09375 L 0.46875 -1.09375 C 0.71875 -1.09375 0.84375 -1.15625 0.84375 -1.28125 C 0.84375 -1.332031 0.820312 -1.367188 0.78125 -1.390625 C 0.75 -1.410156 0.703125 -1.421875 0.640625 -1.421875 C 0.523438 -1.421875 0.40625 -1.382812 0.28125 -1.3125 L 0.09375 -1.625 C 0.1875 -1.695312 0.28125 -1.742188 0.375 -1.765625 C 0.476562 -1.796875 0.59375 -1.8125 0.71875 -1.8125 C 0.90625 -1.8125 1.050781 -1.773438 1.15625 -1.703125 C 1.257812 -1.628906 1.3125 -1.523438 1.3125 -1.390625 Z M 1.3125 -1.390625 "/></g></g></g><g fill="#000000" fill-opacity="1"><g transform="translate(34.146005, 22.77393)"><g><path d="M 0.8125 -1.171875 C 0.914062 -1.171875 1.007812 -1.144531 1.09375 -1.09375 C 1.175781 -1.050781 1.238281 -0.984375 1.28125 -0.890625 C 1.320312 -0.804688 1.34375 -0.707031 1.34375 -0.59375 C 1.34375 -0.394531 1.28125 -0.238281 1.15625 -0.125 C 1.039062 -0.0195312 0.863281 0.03125 0.625 0.03125 C 0.414062 0.03125 0.242188 -0.00390625 0.109375 -0.078125 L 0.109375 -0.46875 C 0.179688 -0.4375 0.257812 -0.410156 0.34375 -0.390625 C 0.4375 -0.367188 0.515625 -0.359375 0.578125 -0.359375 C 0.671875 -0.359375 0.738281 -0.375 0.78125 -0.40625 C 0.832031 -0.445312 0.859375 -0.503906 0.859375 -0.578125 C 0.859375 -0.648438 0.832031 -0.703125 0.78125 -0.734375 C 0.738281 -0.773438 0.664062 -0.796875 0.5625 -0.796875 C 0.488281 -0.796875 0.410156 -0.78125 0.328125 -0.75 L 0.140625 -0.84375 L 0.21875 -1.78125 L 1.234375 -1.78125 L 1.234375 -1.390625 L 0.625 -1.390625 L 0.59375 -1.140625 C 0.664062 -1.160156 0.710938 -1.171875 0.734375 -1.171875 C 0.765625 -1.171875 0.789062 -1.171875 0.8125 -1.171875 Z M 0.8125 -1.171875 "/></g></g></g><g fill="#000000" fill-opacity="1"><g transform="translate(15.706332, 4.023933)"><g><path d="M 1.421875 -0.34375 L 1.234375 -0.34375 L 1.234375 0 L 0.75 0 L 0.75 -0.34375 L 0.046875 -0.34375 L 0.046875 -0.703125 L 0.78125 -1.78125 L 1.234375 -1.78125 L 1.234375 -0.703125 L 1.421875 -0.703125 Z M 0.75 -0.703125 L 0.75 -0.90625 C 0.75 -0.945312 0.75 -1 0.75 -1.0625 C 0.757812 -1.132812 0.765625 -1.171875 0.765625 -1.171875 L 0.75 -1.171875 C 0.71875 -1.109375 0.6875 -1.050781 0.65625 -1 L 0.453125 -0.703125 Z M 0.75 -0.703125 "/></g></g></g></svg>